<?xml version="1.0" standalone="no"?>
<!DOCTYPE svg PUBLIC "-//W3C//DTD SVG 20010904//EN"
 "http://www.w3.org/TR/2001/REC-SVG-20010904/DTD/svg10.dtd">
<svg version="1.0" xmlns="http://www.w3.org/2000/svg"
 width="1024.000000pt" height="1024.000000pt" viewBox="0 0 1024.000000 1024.000000"
 preserveAspectRatio="xMidYMid meet">

<g transform="translate(0.000000,1024.000000) scale(0.100000,-0.100000)"
fill="#000000" stroke="none">
<path d="M3618 8517 c-111 -32 -175 -113 -165 -210 3 -29 8 -59 11 -67 5 -11
-13 -22 -76 -44 -182 -63 -400 -184 -566 -313 -467 -364 -765 -901 -847 -1526
-19 -149 -19 -456 0 -599 53 -401 247 -776 525 -1015 170 -147 412 -283 635
-359 61 -20 114 -41 119 -45 6 -6 0 -56 -17 -131 -65 -296 -95 -520 -104 -768
-18 -510 92 -903 318 -1135 42 -43 72 -88 109 -163 27 -57 68 -127 89 -156 61
-82 167 -173 250 -214 67 -33 83 -37 152 -37 70 0 81 3 121 30 l43 31 40 -20
c22 -11 65 -21 95 -23 70 -6 132 25 175 85 26 38 30 52 33 135 5 112 -16 205
-79 352 l-41 96 30 67 c28 62 72 189 88 255 l7 29 36 -35 c88 -83 188 -148
297 -195 l68 -28 13 -77 c7 -43 22 -104 33 -137 20 -59 20 -61 1 -98 -34 -66
-78 -205 -90 -280 -24 -157 18 -263 121 -307 50 -20 114 -19 165 4 l42 19 15
-23 c26 -40 96 -66 177 -66 181 0 357 117 507 336 101 150 73 138 344 140 353
3 577 40 818 134 432 168 763 523 885 949 46 162 59 263 59 462 -1 323 -61
561 -229 905 -86 177 -151 285 -248 415 -189 254 -373 437 -707 702 -95 75
-105 86 -103 113 2 17 6 131 9 255 6 198 4 242 -15 370 -41 285 -107 503 -225
745 -123 251 -265 446 -468 640 -426 409 -935 615 -1618 655 -194 12 -280 29
-409 84 -45 20 -109 43 -141 51 -85 22 -225 28 -282 12z m210 -237 c40 -11
114 -41 163 -65 117 -59 177 -72 394 -85 99 -6 216 -15 260 -21 837 -107 1480
-601 1759 -1352 112 -300 150 -610 122 -999 -9 -126 -9 -127 18 -182 31 -62
77 -106 286 -266 149 -115 359 -319 464 -450 219 -275 410 -661 475 -962 86
-397 19 -784 -186 -1077 -231 -329 -691 -540 -1181 -541 l-123 0 42 57 c279
377 606 1148 540 1272 -19 34 -71 61 -119 61 -68 0 -90 -29 -144 -195 -125
-386 -314 -771 -494 -1011 -29 -39 -87 -103 -128 -142 -252 -240 -591 -218
-714 46 -23 49 -27 73 -30 173 -4 124 9 211 54 363 52 173 171 472 291 728 59
128 70 169 54 210 -21 56 -113 85 -175 56 -34 -15 -52 -46 -142 -251 -131
-295 -274 -671 -314 -824 l-11 -43 -34 14 c-59 25 -157 97 -226 165 -127 128
-241 336 -279 509 -10 45 -25 94 -34 107 -36 54 -153 53 -197 -3 -47 -59 -2
-269 100 -469 l47 -91 -27 -109 c-94 -385 -169 -496 -359 -539 -160 -37 -306
32 -414 194 -114 172 -171 387 -183 692 -9 252 16 492 93 883 24 119 37 217
39 284 l3 103 -42 10 c-126 31 -370 119 -478 173 -168 84 -265 153 -383 272
-142 141 -250 313 -318 502 l-26 72 39 35 c57 52 153 96 356 166 338 117 468
176 598 269 191 136 307 368 278 554 -26 168 -130 281 -307 332 -98 29 -262
17 -396 -28 -111 -37 -222 -97 -317 -171 -97 -75 -236 -227 -278 -303 -15 -28
-15 -27 -9 22 13 98 74 315 120 431 116 291 251 493 468 700 232 222 475 355
802 439 76 20 146 40 156 45 71 38 64 145 -14 228 -36 38 -34 38 61 12z m470
-6127 c28 -85 39 -163 24 -163 -32 0 -142 136 -142 176 0 8 72 51 91 53 3 1
15 -29 27 -66z m-328 -58 c6 -22 23 -60 36 -84 13 -24 23 -46 21 -48 -8 -7
-125 78 -169 123 l-47 49 74 0 73 0 12 -40z m1317 -111 c32 -8 29 -22 -18 -77
-34 -39 -101 -87 -124 -87 -3 0 -5 17 -5 38 0 32 14 86 45 169 3 9 15 5 41
-12 21 -14 48 -28 61 -31z m372 -90 c-60 -61 -129 -109 -172 -119 l-27 -7 42
81 c28 55 49 83 63 86 49 9 140 20 144 18 3 -2 -20 -28 -50 -59z"/>
<path d="M4768 7423 c18 -2 45 -2 60 0 15 2 0 4 -33 4 -33 0 -45 -2 -27 -4z"/>
<path d="M4898 7423 c23 -2 59 -2 80 0 20 2 1 4 -43 4 -44 0 -61 -2 -37 -4z"/>
<path d="M4673 7413 c9 -2 23 -2 30 0 6 3 -1 5 -18 5 -16 0 -22 -2 -12 -5z"/>
<path d="M5043 7413 c9 -2 25 -2 35 0 9 3 1 5 -18 5 -19 0 -27 -2 -17 -5z"/>
<path d="M3373 7403 c37 -2 96 -2 130 0 34 2 4 3 -68 3 -71 0 -99 -1 -62 -3z"/>
<path d="M4580 7400 c-20 -6 -21 -8 -5 -8 11 0 31 4 45 8 20 6 21 8 5 8 -11 0
-31 -4 -45 -8z"/>
<path d="M5108 7403 c6 -2 18 -2 25 0 6 3 1 5 -13 5 -14 0 -19 -2 -12 -5z"/>
<path d="M3253 7393 c9 -2 23 -2 30 0 6 3 -1 5 -18 5 -16 0 -22 -2 -12 -5z"/>
<path d="M3593 7393 c9 -2 23 -2 30 0 6 3 -1 5 -18 5 -16 0 -22 -2 -12 -5z"/>
<path d="M5158 7393 c7 -3 16 -2 19 1 4 3 -2 6 -13 5 -11 0 -14 -3 -6 -6z"/>
<path d="M3198 7383 c7 -3 16 -2 19 1 4 3 -2 6 -13 5 -11 0 -14 -3 -6 -6z"/>
<path d="M3648 7383 c6 -2 18 -2 25 0 6 3 1 5 -13 5 -14 0 -19 -2 -12 -5z"/>
<path d="M5205 7380 c11 -5 27 -9 35 -9 9 0 8 4 -5 9 -11 5 -27 9 -35 9 -9 0
-8 -4 5 -9z"/>
<path d="M3111 7369 c-18 -6 -31 -12 -29 -14 2 -2 26 2 53 10 28 7 41 13 30
13 -11 0 -35 -4 -54 -9z"/>
<path d="M3698 7373 c7 -3 16 -2 19 1 4 3 -2 6 -13 5 -11 0 -14 -3 -6 -6z"/>
<path d="M3738 7363 c7 -3 16 -2 19 1 4 3 -2 6 -13 5 -11 0 -14 -3 -6 -6z"/>
<path d="M5270 7360 c8 -5 20 -10 25 -10 6 0 3 5 -5 10 -8 5 -19 10 -25 10 -5
0 -3 -5 5 -10z"/>
<path d="M3770 7358 c9 -9 120 -57 120 -53 0 6 -70 41 -100 50 -14 4 -23 5
-20 3z"/>
<path d="M4393 7335 c-29 -13 -53 -26 -53 -29 0 -4 109 42 119 50 13 11 -21 1
-66 -21z"/>
<path d="M5320 7340 c8 -5 20 -10 25 -10 6 0 3 5 -5 10 -8 5 -19 10 -25 10 -5
0 -3 -5 5 -10z"/>
<path d="M3000 7325 c-14 -8 -20 -14 -15 -14 6 0 21 6 35 14 14 8 21 14 15 14
-5 0 -21 -6 -35 -14z"/>
<path d="M3909 7287 c25 -32 151 -87 195 -86 l41 1 -50 8 c-51 7 -114 35 -170
73 -22 16 -26 17 -16 4z"/>
<path d="M5434 7288 c11 -7 52 -35 92 -61 146 -96 291 -264 395 -460 54 -102
67 -112 18 -14 -46 92 -128 213 -197 294 -70 82 -199 188 -275 227 -29 15 -43
21 -33 14z"/>
<path d="M2862 7250 c-34 -22 -62 -42 -62 -45 0 -4 117 68 129 80 14 14 -13 0
-67 -35z"/>
<path d="M4268 7264 c-38 -20 -36 -28 2 -9 17 9 30 18 30 20 0 7 -1 6 -32 -11z"/>
<path d="M4200 7230 c-8 -5 -10 -10 -5 -10 6 0 17 5 25 10 8 5 11 10 5 10 -5
0 -17 -5 -25 -10z"/>
<path d="M4158 7213 c7 -3 16 -2 19 1 4 3 -2 6 -13 5 -11 0 -14 -3 -6 -6z"/>
<path d="M2695 7118 c-129 -122 -271 -325 -300 -428 -4 -14 16 20 44 75 65
129 159 252 267 354 48 45 84 81 81 81 -3 0 -44 -37 -92 -82z"/>
<path d="M4945 6855 c-216 -55 -359 -191 -410 -390 -62 -241 90 -483 400 -637
39 -20 159 -67 267 -107 307 -111 426 -172 540 -279 52 -48 98 -128 98 -172 0
-23 4 -21 51 25 94 92 178 237 220 380 31 105 34 332 5 435 -69 250 -305 514
-581 650 -114 56 -160 72 -267 94 -91 19 -253 20 -323 1z"/>
<path d="M5975 6653 c4 -10 14 -37 22 -61 8 -24 17 -41 19 -39 6 5 -36 117
-43 117 -3 0 -2 -8 2 -17z"/>
<path d="M2376 6645 c-3 -9 -6 -22 -5 -28 0 -7 5 -1 10 12 5 13 8 26 5 28 -2
2 -6 -3 -10 -12z"/>
<path d="M6021 6530 c0 -8 4 -24 9 -35 5 -13 9 -14 9 -5 0 8 -4 24 -9 35 -5
13 -9 14 -9 5z"/>
<path d="M6045 6450 c2 -14 12 -62 21 -108 9 -45 19 -81 21 -78 6 6 -26 163
-38 191 -8 17 -9 17 -4 -5z"/>
<path d="M3887 6270 c-93 -12 -196 -58 -239 -107 -10 -10 -27 -41 -39 -67 -48
-110 14 -260 137 -332 148 -87 383 -67 504 42 126 114 127 295 2 391 -77 58
-236 90 -365 73z"/>
<path d="M6091 6234 c0 -11 3 -14 6 -6 3 7 2 16 -1 19 -3 4 -6 -2 -5 -13z"/>
<path d="M3263 5690 c-126 -76 -48 -262 168 -400 302 -194 718 -223 1062 -75
116 50 182 92 265 170 114 106 140 184 83 247 -27 31 -34 33 -91 33 -54 0 -64
-3 -79 -24 -75 -108 -180 -176 -353 -225 -181 -52 -366 -56 -545 -11 -180 46
-278 109 -323 211 -20 44 -37 67 -59 78 -41 21 -89 20 -128 -4z"/>
<path d="M5813 5202 c-36 -62 -147 -185 -235 -259 -140 -118 -270 -197 -518
-312 l-25 -11 25 6 c57 14 256 118 371 195 86 58 157 116 230 189 95 94 189
213 178 224 -2 3 -14 -12 -26 -32z"/>
<path d="M4935 4590 c-44 -16 -75 -29 -69 -29 12 -1 155 46 162 54 10 10 -13
3 -93 -25z"/>
<path d="M4805 4550 c-13 -5 -14 -9 -5 -9 8 0 24 4 35 9 13 5 14 9 5 9 -8 0
-24 -4 -35 -9z"/>
<path d="M4758 4533 c7 -3 16 -2 19 1 4 3 -2 6 -13 5 -11 0 -14 -3 -6 -6z"/>
<path d="M4718 4523 c7 -3 16 -2 19 1 4 3 -2 6 -13 5 -11 0 -14 -3 -6 -6z"/>
<path d="M4678 4513 c7 -3 16 -2 19 1 4 3 -2 6 -13 5 -11 0 -14 -3 -6 -6z"/>
<path d="M3538 4503 c6 -2 18 -2 25 0 6 3 1 5 -13 5 -14 0 -19 -2 -12 -5z"/>
<path d="M4628 4503 c6 -2 18 -2 25 0 6 3 1 5 -13 5 -14 0 -19 -2 -12 -5z"/>
<path d="M3593 4493 c9 -2 23 -2 30 0 6 3 -1 5 -18 5 -16 0 -22 -2 -12 -5z"/>
<path d="M4573 4493 c9 -2 23 -2 30 0 6 3 -1 5 -18 5 -16 0 -22 -2 -12 -5z"/>
<path d="M3653 4483 c9 -2 25 -2 35 0 9 3 1 5 -18 5 -19 0 -27 -2 -17 -5z"/>
<path d="M4503 4483 c9 -2 25 -2 35 0 9 3 1 5 -18 5 -19 0 -27 -2 -17 -5z"/>
<path d="M3728 4473 c12 -2 30 -2 40 0 9 3 -1 5 -23 4 -22 0 -30 -2 -17 -4z"/>
<path d="M4428 4473 c12 -2 30 -2 40 0 9 3 -1 5 -23 4 -22 0 -30 -2 -17 -4z"/>
<path d="M3823 4463 c15 -2 39 -2 55 0 15 2 2 4 -28 4 -30 0 -43 -2 -27 -4z"/>
<path d="M4323 4463 c15 -2 37 -2 50 0 12 2 0 4 -28 4 -27 0 -38 -2 -22 -4z"/>
<path d="M4003 4453 c48 -2 126 -2 175 0 48 1 8 3 -88 3 -96 0 -136 -2 -87 -3z"/>
</g>
</svg>
